<svg width="32" height="32" viewBox="0 0 32 32" fill="none" xmlns="http://www.w3.org/2000/svg">
<path fill-rule="evenodd" clip-rule="evenodd" d="M9.56033 5.17435L5.467 8.58769C4.907 9.05436 4.067 8.98769 3.60033 8.41435C3.12033 7.85435 3.20033 7.01435 3.76033 6.53435L7.867 3.12102C8.427 2.65435 9.267 2.72102 9.73367 3.29435C10.2137 3.85435 10.1337 4.69435 9.56033 5.17435ZM28.2402 6.53435L24.1336 3.12102C23.5736 2.65435 22.7336 2.72102 22.2536 3.29435C21.7869 3.85435 21.8669 4.69435 22.4269 5.17435L26.5202 8.58769C27.0802 9.05436 27.9202 8.98769 28.4002 8.41435C28.8802 7.85435 28.8002 7.01435 28.2402 6.53435ZM21.1604 20.1877L16.6671 17.521V11.481C16.6671 10.9477 16.2404 10.521 15.7071 10.521H15.6271C15.0937 10.521 14.6671 10.9477 14.6671 11.481V17.7744C14.6671 18.241 14.9071 18.681 15.3204 18.921L20.1871 21.841C20.6404 22.1077 21.2271 21.9744 21.4937 21.521C21.7737 21.0544 21.6271 20.4544 21.1604 20.1877ZM15.9995 5.18769C9.37279 5.18769 3.99946 10.561 3.99946 17.1877C3.99946 23.8144 9.37279 29.1877 15.9995 29.1877C22.6261 29.1877 27.9995 23.8144 27.9995 17.1877C27.9995 10.561 22.6261 5.18769 15.9995 5.18769ZM6.66706 17.1877C6.66706 22.3344 10.8537 26.521 16.0004 26.521C21.1471 26.521 25.3337 22.3344 25.3337 17.1877C25.3337 12.041 21.1471 7.85435 16.0004 7.85435C10.8537 7.85435 6.66706 12.041 6.66706 17.1877Z" fill="white"/>
</svg>
