<svg width="16" height="18" viewBox="0 0 16 18" fill="none" xmlns="http://www.w3.org/2000/svg">
<path fill-rule="evenodd" clip-rule="evenodd" d="M3.97521 2.23391L1.41688 4.36724C1.06687 4.65891 0.541875 4.61724 0.250208 4.25891C-0.0497917 3.90891 0.000208326 3.38391 0.350208 3.08391L2.91687 0.950577C3.26687 0.65891 3.79187 0.700577 4.08354 1.05891C4.38354 1.40891 4.33354 1.93391 3.97521 2.23391ZM15.6502 3.08391L13.0835 0.950577C12.7335 0.65891 12.2085 0.700577 11.9085 1.05891C11.6169 1.40891 11.6669 1.93391 12.0169 2.23391L14.5752 4.36724C14.9252 4.65891 15.4502 4.61724 15.7502 4.25891C16.0502 3.90891 16.0002 3.38391 15.6502 3.08391ZM11.2252 11.6172L8.41686 9.95058V6.17558C8.41686 5.84225 8.1502 5.57558 7.81686 5.57558H7.76686C7.43353 5.57558 7.16686 5.84225 7.16686 6.17558V10.1089C7.16686 10.4006 7.31686 10.6756 7.5752 10.8256L10.6169 12.6506C10.9002 12.8172 11.2669 12.7339 11.4335 12.4506C11.6085 12.1589 11.5169 11.7839 11.2252 11.6172ZM8.0002 2.24225C3.85854 2.24225 0.500205 5.60058 0.500205 9.74225C0.500205 13.8839 3.85854 17.2422 8.0002 17.2422C12.1419 17.2422 15.5002 13.8839 15.5002 9.74225C15.5002 5.60058 12.1419 2.24225 8.0002 2.24225ZM2.16686 9.74225C2.16686 12.9589 4.78353 15.5756 8.0002 15.5756C11.2169 15.5756 13.8335 12.9589 13.8335 9.74225C13.8335 6.52558 11.2169 3.90891 8.0002 3.90891C4.78353 3.90891 2.16686 6.52558 2.16686 9.74225Z" fill="#066D66"/>
</svg>
