<svg width="99" height="39" viewBox="0 0 99 39" fill="none" xmlns="http://www.w3.org/2000/svg">
<g clip-path="url(#clip0)">
<path fill-rule="evenodd" clip-rule="evenodd" d="M98.6065 7.71739H94.3913V-0.00075154H98.8369V1.11314H95.5783V3.2758H98.7298V4.38968H95.5737V6.60351H98.8323V7.71739H98.5995H98.6065ZM79.481 7.71739H78.5244V-0.00075154H80.0257L80.0559 0.0759881L80.0838 0.138775L82.5464 5.83379L85.0066 0.138775L85.0322 0.0759881L85.0625 -0.00075154H86.5637V7.71739H85.3813V2.15493L83.0538 7.57787L83.0259 7.64065L82.9933 7.71507H82.0855L82.0553 7.64065L82.0273 7.57787L79.6998 2.15493V7.71739H79.467H79.481ZM70.4408 7.71739H69.4865V-0.00075154H70.6712V7.71739H70.4385H70.4408ZM57.6206 7.71739H56.6664V-0.00075154H58.9264C59.5099 -0.0176944 60.0905 0.088485 60.6302 0.310858C61.0065 0.470462 61.3335 0.727311 61.5775 1.055C61.7641 1.3162 61.897 1.61182 61.9685 1.92472C62.0168 2.14704 62.041 2.37392 62.0407 2.60142C62.0425 2.91406 61.9849 3.22421 61.8708 3.51532C61.7593 3.79753 61.5923 4.05453 61.3796 4.27109C61.1854 4.46435 60.9584 4.6218 60.7093 4.73618C60.512 4.83173 60.3031 4.9013 60.0879 4.94314L61.8987 7.34067L62.0244 7.51043L62.171 7.70809H60.7L60.6628 7.65926L60.6302 7.6174L58.1653 4.33852L58.0396 4.17109L57.8883 3.97343H58.9264C59.0874 3.97387 59.2482 3.96533 59.4082 3.94785C59.6354 3.92262 59.858 3.86547 60.0692 3.77809C60.2884 3.68899 60.4797 3.54285 60.6232 3.35486C60.7872 3.11339 60.8688 2.8255 60.8559 2.53398C60.8642 2.32634 60.8277 2.11936 60.7489 1.92704C60.6695 1.75334 60.5479 1.60224 60.3951 1.48753C60.2145 1.35634 60.0095 1.26228 59.7923 1.2108C59.513 1.14136 59.2258 1.10853 58.938 1.11314H57.8604V7.71739H57.6276H57.6206ZM46.5508 1.11314H45.1985V3.68973H46.5508C46.7751 3.69291 46.9986 3.66314 47.2142 3.60136C47.39 3.5514 47.5534 3.46504 47.6936 3.34789C47.8218 3.23785 47.9223 3.09924 47.9869 2.94326C48.058 2.77316 48.0936 2.59039 48.0917 2.40608C48.092 2.21869 48.0556 2.03305 47.9846 1.8596C47.9191 1.70408 47.8188 1.56565 47.6913 1.45498C47.5551 1.33962 47.3967 1.25336 47.2258 1.2015C47.0065 1.13868 46.779 1.1089 46.5508 1.11314ZM44.9727 7.71739H44.0161V-0.00075154H46.5415C46.9234 -0.00650939 47.3039 0.0452307 47.6704 0.152728C47.986 0.246088 48.2786 0.404525 48.5292 0.617816C48.7706 0.830201 48.9588 1.09624 49.0785 1.39451C49.2075 1.71687 49.2724 2.06126 49.2694 2.40841C49.2723 2.74997 49.2058 3.08858 49.0739 3.4037C48.9495 3.70435 48.7566 3.97188 48.5106 4.18505C48.2582 4.39828 47.9641 4.55667 47.6471 4.65013C47.2872 4.75871 46.9127 4.81126 46.5369 4.80594H45.1939V7.71739H44.9611H44.9727Z" fill="#517E7A"/>
<path fill-rule="evenodd" clip-rule="evenodd" d="M52.1788 23.2777H51.0523V16.7595H51.022L48.4222 23.2777H47.7448L45.1333 16.7595H45.1124V23.2777H43.9858V15.5596H45.7594L48.0777 21.4731L50.4052 15.5596H52.1788V23.2777Z" fill="#517E7A"/>
<path fill-rule="evenodd" clip-rule="evenodd" d="M59.5921 23.2777H55.4258V15.5596H59.5921V16.592H56.5546V18.8663H59.5921V19.8988H56.5546V22.2452H59.5921V23.2777Z" fill="#517E7A"/>
<path fill-rule="evenodd" clip-rule="evenodd" d="M69.1 19.4384C69.0955 19.9456 69.0099 20.4488 68.8463 20.929C68.7064 21.3892 68.461 21.8104 68.1294 22.1592C67.38 22.9033 66.3714 23.2754 65.1036 23.2754H62.6504V15.5596H65.1548C66.5808 15.5596 67.6321 16.0324 68.3087 16.9781C68.8292 17.6924 69.1066 18.5548 69.1 19.4384ZM67.9735 19.4384C67.97 19.0351 67.891 18.636 67.7407 18.2617C67.5481 17.7479 67.1936 17.3104 66.7306 17.0153C66.2523 16.7267 65.7018 16.5799 65.1432 16.5921H63.7746V22.2452H65.1223C66.0067 22.2452 66.705 21.9979 67.217 21.5034C67.7291 21.0088 67.9782 20.3205 67.9642 19.4384H67.9735Z" fill="#517E7A"/>
<path d="M73.3179 15.5596H72.1914V23.2754H73.3179V15.5596Z" fill="#517E7A"/>
<path fill-rule="evenodd" clip-rule="evenodd" d="M83.8104 17.5315H82.4534C81.8327 16.8075 81.1089 16.4455 80.2818 16.4455C79.8997 16.4386 79.5203 16.5123 79.1686 16.6617C78.8169 16.8112 78.5006 17.0331 78.2405 17.3129C77.9703 17.5894 77.7579 17.9168 77.6156 18.2761C77.4734 18.6354 77.4041 19.0195 77.4119 19.4058C77.4056 20.1845 77.7027 20.9351 78.2405 21.4987C78.4928 21.7848 78.8039 22.0131 79.1526 22.168C79.5012 22.3229 79.8793 22.4008 80.2609 22.3963C80.6651 22.3966 81.0638 22.3018 81.4246 22.1196C81.7907 21.939 82.1156 21.6849 82.3789 21.3731H83.7755C83.4278 21.9998 82.9182 22.5218 82.2998 22.8847C81.6852 23.2463 80.9834 23.4337 80.2702 23.4265C79.7472 23.4322 79.2289 23.329 78.748 23.1237C78.2671 22.9183 77.8343 22.6151 77.4771 22.2335C77.1021 21.8622 76.8057 21.4193 76.6058 20.931C76.4058 20.4428 76.3064 19.9193 76.3133 19.3919C76.3109 18.8696 76.412 18.352 76.6109 17.869C76.8098 17.386 77.1026 16.9471 77.4722 16.5778C77.8419 16.2085 78.2811 15.9161 78.7645 15.7173C79.248 15.5186 79.766 15.4175 80.2888 15.42C81.1279 15.413 81.9474 15.6737 82.628 16.1641C83.1164 16.5292 83.5198 16.9957 83.8104 17.5315Z" fill="#517E7A"/>
<path fill-rule="evenodd" clip-rule="evenodd" d="M92.4433 23.2777H91.24L90.3858 21.0034H87.6113L86.7548 23.2777H85.5654L88.4981 15.5596H89.5106L92.4433 23.2777ZM90.0017 19.9709L89.0195 17.0199H88.9986L88.007 19.9709H90.0017Z" fill="#517E7A"/>
<path fill-rule="evenodd" clip-rule="evenodd" d="M99.0002 23.2777H95.1899V15.5596H96.3165V22.2452H99.0002V23.2777Z" fill="#517E7A"/>
<path fill-rule="evenodd" clip-rule="evenodd" d="M51.1244 33.1073H49.7674C49.1468 32.3833 48.4237 32.0221 47.5982 32.0237C47.2162 32.0165 46.837 32.0898 46.4852 32.2388C46.1335 32.3879 45.8172 32.6093 45.5569 32.8887C45.2863 33.1649 45.0735 33.4923 44.9313 33.8517C44.789 34.2111 44.72 34.5952 44.7283 34.9816C44.7207 35.7605 45.018 36.5116 45.5569 37.0745C45.8091 37.3606 46.1202 37.5889 46.4689 37.7438C46.8176 37.8987 47.1956 37.9766 47.5772 37.9721C47.9815 37.9725 48.3802 37.8777 48.741 37.6954C49.1083 37.5157 49.4341 37.2615 49.6976 36.949H51.0941C50.7456 37.5758 50.2352 38.0978 49.6161 38.4605C49.0018 38.8232 48.3 39.0113 47.5865 39.0046C47.0635 39.0095 46.5452 38.9057 46.0644 38.6999C45.5836 38.4942 45.1508 38.1909 44.7935 37.8094C44.4188 37.4377 44.1228 36.9947 43.9229 36.5065C43.723 36.0184 43.6233 35.4951 43.6297 34.9677C43.6272 34.4452 43.7284 33.9274 43.9275 33.4443C44.1266 32.9611 44.4195 32.5222 44.7894 32.1528C45.1593 31.7835 45.5988 31.4911 46.0825 31.2925C46.5662 31.0939 47.0845 30.993 47.6075 30.9958C48.4535 30.986 49.2802 31.2486 49.9653 31.7446C50.446 32.1095 50.8415 32.5745 51.1244 33.1073Z" fill="#517E7A"/>
<path fill-rule="evenodd" clip-rule="evenodd" d="M60.3302 38.8535H56.52V31.1353H57.6465V37.821H60.3302V38.8535Z" fill="#517E7A"/>
<path d="M66.5679 31.1353H65.4414V38.8512H66.5679V31.1353Z" fill="#517E7A"/>
<path fill-rule="evenodd" clip-rule="evenodd" d="M78.5899 38.8535H77.4215L73.602 32.8887H73.581V38.8535H72.4521V31.1353H73.6834L77.4424 37.0071H77.4634V31.1353H78.5899V38.8535Z" fill="#517E7A"/>
<path d="M85.6119 31.1353H84.4854V38.8512H85.6119V31.1353Z" fill="#517E7A"/>
<path fill-rule="evenodd" clip-rule="evenodd" d="M98.6371 33.1073H97.2918C96.6711 32.3833 95.9472 32.0221 95.1201 32.0237C94.7382 32.0165 94.3589 32.0898 94.0072 32.2388C93.6555 32.3879 93.3392 32.6093 93.0789 32.8887C92.8087 33.1652 92.5962 33.4926 92.454 33.8519C92.3117 34.2113 92.2425 34.5953 92.2503 34.9816C92.2439 35.7603 92.5411 36.5109 93.0789 37.0745C93.3311 37.3606 93.6422 37.5889 93.9909 37.7438C94.3396 37.8987 94.7176 37.9766 95.0992 37.9722C95.5035 37.9725 95.9022 37.8777 96.263 37.6954C96.6303 37.5157 96.9561 37.2615 97.2196 36.949H98.6161C98.2678 37.5752 97.7584 38.097 97.1405 38.4605C96.5252 38.8228 95.8227 39.0109 95.1085 39.0047C94.5855 39.0095 94.0672 38.9057 93.5864 38.7C93.1056 38.4942 92.6728 38.1909 92.3154 37.8094C91.9408 37.4378 91.6448 36.9947 91.4448 36.5066C91.2449 36.0184 91.1452 35.4951 91.1517 34.9677C91.1492 34.4452 91.2504 33.9274 91.4495 33.4443C91.6485 32.9611 91.9415 32.5222 92.3114 32.1528C92.6813 31.7835 93.1208 31.4911 93.6045 31.2925C94.0882 31.0939 94.6065 30.993 95.1295 30.9958C95.9755 30.9857 96.8023 31.2483 97.4873 31.7446C97.964 32.1111 98.3562 32.5759 98.6371 33.1073Z" fill="#517E7A"/>
<path fill-rule="evenodd" clip-rule="evenodd" d="M0 27.2077V29.0378H2.7372H4.55734H5.72112C6.29387 29.0263 6.86487 29.1048 7.41325 29.2703C7.87337 29.414 8.29345 29.6633 8.63986 29.9982C8.98205 30.3418 9.23737 30.7619 9.38468 31.2237C9.55133 31.7674 9.62991 32.3342 9.61743 32.9027C9.63007 33.475 9.55151 34.0456 9.38468 34.5933C9.24459 35.0594 8.99162 35.4839 8.64815 35.8291C8.30469 36.1743 7.88133 36.4295 7.41557 36.5722C6.86989 36.7355 6.30231 36.8139 5.73275 36.8048L0.379391 36.8536H0V38.6674H38.3883V25.1799H36.5728V27.2077L32.6672 27.2263C31.815 27.2108 30.9659 27.3341 30.1534 27.5914C29.4852 27.8052 28.8768 28.1732 28.3775 28.6657C27.2533 29.7959 26.9484 31.4353 26.9484 32.9701C26.9442 33.6514 27.0224 34.3307 27.1811 34.9933C27.2973 35.4823 27.4831 35.9521 27.7328 36.3885L28.0167 36.8745H23.8388L24.1251 36.3862C24.7302 35.356 24.9118 34.098 24.9118 32.919C24.9271 32.0675 24.8037 31.2193 24.5463 30.4075C24.3381 29.7394 23.9684 29.1328 23.4699 28.6413C22.9714 28.1497 22.3595 27.7883 21.6881 27.589C20.8715 27.3364 20.0198 27.2156 19.165 27.2309H13.4742V29.0587H16.1695H17.9035H19.1883C19.7619 29.0462 20.3338 29.1247 20.8828 29.2913C21.3483 29.4286 21.7726 29.6791 22.1174 30.0204C22.4623 30.3617 22.717 30.7831 22.8589 31.247C23.0257 31.7898 23.1042 32.3559 23.0916 32.9236C23.1031 33.4951 23.0246 34.0648 22.8589 34.6119C22.7086 35.0729 22.4527 35.4925 22.1117 35.8374C21.7654 36.1775 21.3435 36.4309 20.8804 36.5769C20.3378 36.743 19.7721 36.8215 19.2046 36.8094H19.1557L14.2679 36.8536H10.3623L10.6485 36.3653C10.8246 36.0651 10.9682 35.747 11.0768 35.4165C11.3323 34.6003 11.4549 33.7484 11.4399 32.8934C11.4552 32.0427 11.3318 31.1952 11.0745 30.3842C10.8607 29.7241 10.4956 29.1229 10.0085 28.6285C9.50351 28.1441 8.89334 27.7827 8.22556 27.5728C7.40602 27.3183 6.55131 27.195 5.69319 27.2077H0ZM36.5728 29.0076V36.8164H35.2694H32.6741C32.1014 36.8276 31.5305 36.7491 30.982 36.5839C30.5178 36.4395 30.0937 36.1886 29.7438 35.8513C29.403 35.5075 29.1492 35.0873 29.0036 34.6258C28.8368 34.083 28.7582 33.5169 28.7708 32.9492C28.7593 32.3777 28.8379 31.808 29.0036 31.2609C29.1428 30.7943 29.3954 30.3693 29.739 30.024C30.0826 29.6787 30.5065 29.4237 30.9727 29.282C31.5161 29.1157 32.0827 29.0372 32.6509 29.0494H32.7184L36.5728 29.0076Z" fill="#1B1B1B"/>
<path fill-rule="evenodd" clip-rule="evenodd" d="M13.4742 2.17458H14.8195H16.5908H19.1883C19.7618 2.16323 20.3336 2.2417 20.8828 2.40713C21.3432 2.55049 21.7639 2.79888 22.1117 3.13267C22.4505 3.47677 22.7033 3.89584 22.8496 4.35585C23.0163 4.89951 23.0949 5.46634 23.0823 6.03482C23.0936 6.60704 23.0151 7.1775 22.8496 7.72542C22.7034 8.18956 22.4507 8.61318 22.1117 8.96255C21.7654 9.30266 21.3435 9.55607 20.8804 9.70204C20.3526 9.86322 19.803 9.94167 19.2512 9.93459L13.4742 9.9997V11.8042L19.1953 11.7787C20.0473 11.7915 20.8959 11.6683 21.7091 11.4136C22.3778 11.1998 22.9864 10.8309 23.485 10.3369C23.9735 9.83448 24.3385 9.22546 24.551 8.55793C24.8025 7.74026 24.922 6.88774 24.9048 6.0325C24.9136 5.35715 24.8402 4.68324 24.686 4.02564C24.5729 3.54289 24.3919 3.07861 24.1483 2.64665L23.869 2.16296H28.0237L27.7374 2.64898C27.4825 3.09047 27.2936 3.56678 27.1765 4.06284C27.0154 4.73604 26.9372 5.42639 26.9437 6.11854C26.9286 6.96842 27.052 7.8151 27.3091 8.62536C27.5238 9.29063 27.8922 9.89607 28.3845 10.3927C28.8899 10.8777 29.501 11.239 30.1697 11.4485C30.9859 11.699 31.8367 11.8191 32.6904 11.8042H36.5681V13.7437H38.3836V0.323532C32.0061 0.323532 25.6279 0.327408 19.2488 0.335159C12.8341 0.342911 6.41783 0.346787 0 0.346787V2.17691H3.11426H5.71181C6.28455 2.16557 6.85553 2.24404 7.40394 2.40945C7.86736 2.55303 8.29065 2.80311 8.63986 3.13964C8.98205 3.48324 9.23737 3.90334 9.38468 4.36515C9.55134 4.90963 9.62992 5.47721 9.61744 6.04645C9.62991 6.61797 9.55134 7.18784 9.38468 7.73472C9.23848 8.19886 8.98583 8.62248 8.64685 8.97186C8.30057 9.31196 7.87865 9.56537 7.41557 9.71135C6.87291 9.87747 6.30718 9.95597 5.73974 9.94389H5.66991L0 9.9997V11.8042L5.71879 11.7787C6.57079 11.7937 7.41964 11.6712 8.23254 11.4159C8.90018 11.2008 9.50831 10.8329 10.0085 10.3415C10.4981 9.83777 10.8639 9.22716 11.0768 8.55793C11.331 7.74545 11.4536 6.89759 11.4399 6.04645C11.4476 5.37116 11.3742 4.69739 11.2211 4.03959C11.1064 3.55591 10.9238 3.09087 10.6788 2.65828L10.3995 2.16296H13.4742V2.17458ZM36.5728 9.97877H35.2694H32.6741C32.1022 9.99014 31.5319 9.91167 30.9843 9.74623C30.5186 9.60907 30.094 9.35894 29.7484 9.01812C29.4028 8.67731 29.1469 8.25639 29.0036 7.79285C28.8369 7.24837 28.7584 6.6808 28.7708 6.11156C28.7593 5.54009 28.8379 4.97036 29.0036 4.42329C29.1437 3.95712 29.3967 3.53265 29.7401 3.18747C30.0836 2.84228 30.5069 2.58704 30.9727 2.44434C31.4821 2.28652 32.0128 2.20808 32.5461 2.21179H32.7091L36.5751 2.17924L36.5728 9.97877Z" fill="#1B1B1B"/>
<path fill-rule="evenodd" clip-rule="evenodd" d="M5.71879 25.1845C6.57076 25.1964 7.41922 25.0732 8.23254 24.8195C8.90025 24.6046 9.50842 24.2366 10.0085 23.7451C10.4986 23.2426 10.8644 22.6326 11.0768 21.9638C11.3323 21.1476 11.4549 20.2957 11.4399 19.4407C11.4552 18.5908 11.3318 17.7441 11.0745 16.9339C10.8625 16.2695 10.4974 15.6641 10.0085 15.1665C9.50351 14.6821 8.89334 14.3208 8.22556 14.1108C7.4168 13.8625 6.57408 13.7425 5.7281 13.755V15.5805C6.29855 15.5691 6.86723 15.6476 7.41325 15.813C7.87903 15.9502 8.30362 16.2003 8.64921 16.5411C8.9948 16.8819 9.25066 17.3029 9.39399 17.7664C9.56065 18.3109 9.63923 18.8784 9.62675 19.4477C9.63922 20.0192 9.56065 20.5891 9.39399 21.136C9.24883 21.6006 8.99604 22.0244 8.65616 22.3731C8.31062 22.7147 7.88852 22.969 7.42488 23.1149C6.87919 23.2781 6.31162 23.3566 5.74207 23.3474H5.7281V25.1776L5.71879 25.1845ZM38.3883 25.1845V23.3568H37.043H33.9566H32.6765C32.1045 23.3671 31.5345 23.2887 30.9867 23.1242C30.5227 22.9802 30.0988 22.7302 29.7484 22.394C29.4065 22.0515 29.1519 21.632 29.0059 21.1708C28.8393 20.6255 28.7607 20.0572 28.7732 19.4872V19.357C28.7725 18.8289 28.8509 18.3038 29.0059 17.7989C29.146 17.3331 29.3987 16.9089 29.7417 16.5638C30.0847 16.2187 30.5075 15.9632 30.9727 15.82C31.4814 15.6625 32.0113 15.5841 32.5438 15.5874H32.6997L38.3906 15.5363V13.7341L32.6718 13.7596C31.8192 13.7472 30.97 13.8696 30.1557 14.1224C29.485 14.3308 28.8753 14.6997 28.3797 15.1969C27.884 15.6942 27.5173 16.3048 27.3115 16.9757C27.0563 17.792 26.9337 18.6438 26.9484 19.4988C26.933 20.3495 27.0565 21.197 27.3138 22.008C27.5282 22.6732 27.8976 23.2781 28.3915 23.773C28.8947 24.2573 29.5033 24.6187 30.1697 24.8288C30.9864 25.0809 31.8381 25.2018 32.6928 25.1869H38.3883V25.1845ZM0 32.9283H1.81549V25.2008L5.71879 25.1845V23.3544L1.81549 23.3893V15.5805H4.43398H5.71879V13.755H0V32.9283Z" fill="#517E7A"/>
<path fill-rule="evenodd" clip-rule="evenodd" d="M27.635 25.1869H25.5402V18.9873C25.5402 16.761 24.6604 15.6479 22.9008 15.6479C21.8937 15.6479 21.1954 15.9394 20.806 16.5223C20.4165 17.1052 20.2311 17.9207 20.2497 18.9687V25.1869H18.1549V18.9873C18.1549 17.9548 17.9997 17.1905 17.6894 16.6944C17.2332 15.9968 16.5419 15.6479 15.6155 15.6479C13.7737 15.6479 12.8535 16.7548 12.855 18.9687V25.1869H10.7603V14.0364H12.6944V15.2433H12.734C13.1203 14.7641 13.6002 14.3685 14.1445 14.0806C14.7087 13.8339 15.3212 13.717 15.9367 13.7387C16.651 13.7397 17.3551 13.9086 17.992 14.2317C18.6059 14.517 19.1037 15.0037 19.4024 15.6107C20.1938 14.3705 21.4228 13.7504 23.0893 13.7504C24.5525 13.7504 25.6775 14.1728 26.4642 15.0177C27.2509 15.8627 27.6435 17.0168 27.642 18.4803L27.635 25.1869Z" fill="#517E7A"/>
</g>
<defs>
<clipPath id="clip0">
<rect width="99" height="39" fill="white"/>
</clipPath>
</defs>
</svg>
