<svg width="31" height="32" viewBox="0 0 31 32" fill="none" xmlns="http://www.w3.org/2000/svg">
<path d="M15.4838 11.4686C13.264 11.4686 11.4525 13.282 11.4525 15.504C11.4525 17.7261 13.264 19.5395 15.4838 19.5395C17.7035 19.5395 19.515 17.7261 19.515 15.504C19.515 13.282 17.7035 11.4686 15.4838 11.4686ZM27.5745 15.504C27.5745 13.8329 27.5896 12.177 27.4959 10.5089C27.4021 8.57141 26.9606 6.85188 25.5453 5.43508C24.1269 4.01526 22.4122 3.57629 20.4767 3.48244C18.8074 3.3886 17.1531 3.40373 15.4868 3.40373C13.8174 3.40373 12.1632 3.3886 10.4969 3.48244C8.56139 3.57629 6.84365 4.01828 5.42833 5.43508C4.00998 6.8549 3.57147 8.57141 3.47772 10.5089C3.38397 12.18 3.39909 13.836 3.39909 15.504C3.39909 17.1721 3.38397 18.8311 3.47772 20.4991C3.57147 22.4366 4.013 24.1562 5.42833 25.573C6.84667 26.9928 8.56139 27.4318 10.4969 27.5256C12.1662 27.6195 13.8205 27.6043 15.4868 27.6043C17.1561 27.6043 18.8104 27.6195 20.4767 27.5256C22.4122 27.4318 24.1299 26.9898 25.5453 25.573C26.9636 24.1531 27.4021 22.4366 27.4959 20.4991C27.5926 18.8311 27.5745 17.1751 27.5745 15.504ZM15.4838 21.7131C12.0513 21.7131 9.28115 18.9401 9.28115 15.504C9.28115 12.068 12.0513 9.29494 15.4838 9.29494C18.9162 9.29494 21.6864 12.068 21.6864 15.504C21.6864 18.9401 18.9162 21.7131 15.4838 21.7131ZM21.9404 10.4907C21.139 10.4907 20.4918 9.84289 20.4918 9.04065C20.4918 8.2384 21.139 7.59055 21.9404 7.59055C22.7418 7.59055 23.389 8.2384 23.389 9.04065C23.3893 9.23114 23.3519 9.41982 23.2792 9.59586C23.2065 9.7719 23.0998 9.93185 22.9653 10.0666C22.8307 10.2013 22.6709 10.3081 22.4951 10.3808C22.3192 10.4536 22.1307 10.491 21.9404 10.4907Z" fill="white"/>
</svg>
