<svg width="26" height="26" viewBox="0 0 26 26" fill="none" xmlns="http://www.w3.org/2000/svg">
<g clip-path="url(#clip0)">
<path d="M17.2316 0.00415039H9.5654C2.56956 0.00415039 0.911133 1.66431 0.911133 8.66743V16.3417C0.911133 23.3448 2.56956 25.0049 9.5654 25.0049H17.2316C24.2275 25.0049 25.8859 23.3448 25.8859 16.3417V8.66743C25.8859 1.66431 24.2111 0.00415039 17.2316 0.00415039ZM21.0729 17.8385H19.26C18.5732 17.8385 18.3617 17.2932 17.1263 16.0401C16.0532 14.9987 15.5779 14.8604 15.3133 14.8604C14.9395 14.8604 14.8333 14.9659 14.8333 15.4792V17.119C14.8333 17.5588 14.6952 17.8229 13.5324 17.8229C11.6094 17.8229 9.47565 16.6588 7.97955 14.4901C5.72331 11.312 5.10598 8.93149 5.10598 8.43931C5.10598 8.17446 5.21134 7.92681 5.71941 7.92681H7.53626C7.99594 7.92681 8.17076 8.13853 8.34948 8.63071C9.24776 11.2268 10.7439 13.501 11.3612 13.501C11.5891 13.501 11.6944 13.3956 11.6944 12.8135V10.1323C11.625 8.89556 10.9749 8.78931 10.9749 8.35024C10.9749 8.13853 11.1497 7.92681 11.4299 7.92681H14.287C14.6734 7.92681 14.8154 8.13853 14.8154 8.59399V12.2112C14.8154 12.6018 14.9902 12.7401 15.0956 12.7401C15.3235 12.7401 15.5186 12.6018 15.9408 12.1784C17.2457 10.7135 18.1806 8.45493 18.1806 8.45493C18.3024 8.19009 18.5139 7.94243 18.9736 7.94243H20.7904C21.3352 7.94243 21.4569 8.2229 21.3352 8.61353C21.1073 9.67134 18.8838 12.8127 18.8838 12.8127C18.6926 13.1299 18.6192 13.2682 18.8838 13.6221C19.0789 13.887 19.7134 14.4362 20.1356 14.9284C20.9122 15.8112 21.5092 16.5518 21.6684 17.0643C21.8471 17.5729 21.5833 17.8377 21.0706 17.8377L21.0729 17.8385Z" fill="white"/>
</g>
<defs>
<clipPath id="clip0">
<rect width="24.974" height="25" fill="white" transform="translate(0.914062 0.00415039)"/>
</clipPath>
</defs>
</svg>
