<svg width="26" height="26" viewBox="0 0 26 26" fill="none" xmlns="http://www.w3.org/2000/svg">
<g clip-path="url(#clip0)">
<path d="M11.7534 10.0439V14.6074L15.9554 12.3455L11.7534 10.0439Z" fill="white"/>
<path d="M19.5827 0.00415039H7.11557C3.6866 0.00415039 0.87207 2.82161 0.87207 6.27399V18.7542C0.87207 22.1867 3.6866 25.0042 7.11557 25.0042H19.5827C23.0315 25.0042 25.8461 22.1867 25.8461 18.7343V6.27399C25.8461 2.82161 23.0315 0.00415039 19.5827 0.00415039ZM21.0891 13.1192C21.0891 14.4288 20.9702 15.7581 20.9702 15.7581C20.9702 15.7581 20.8314 16.8692 20.3756 17.3653C19.7809 18.02 19.1269 18.02 18.8296 18.0597C16.6493 18.2184 13.3789 18.2383 13.3789 18.2383C13.3789 18.2383 9.31566 18.1788 8.06696 18.0597C7.73001 18.0002 6.93718 18.02 6.34256 17.3653C5.86687 16.8692 5.74794 15.7581 5.74794 15.7581C5.74794 15.7581 5.62902 14.4288 5.62902 13.1192V11.8891C5.62902 10.5795 5.74794 9.25018 5.74794 9.25018C5.74794 9.25018 5.88669 8.13907 6.34256 7.64304C6.93718 6.98828 7.59126 6.96844 7.88857 6.92875C10.0887 6.77002 13.3591 6.75018 13.3591 6.75018C13.3591 6.75018 16.6295 6.77002 18.8097 6.92875C19.107 6.96844 19.7809 6.98828 20.3756 7.6232C20.8513 8.11923 20.9702 9.25018 20.9702 9.25018C20.9702 9.25018 21.0891 10.5795 21.0891 11.8891V13.1192Z" fill="white"/>
</g>
<defs>
<clipPath id="clip0">
<rect width="24.974" height="25" fill="white" transform="translate(0.87207 0.00415039)"/>
</clipPath>
</defs>
</svg>
