<svg width="26" height="25" viewBox="0 0 26 25" fill="none" xmlns="http://www.w3.org/2000/svg">
<g clip-path="url(#clip0)">
<path d="M11.7651 10.0398V14.6033L15.9715 12.3414L11.7651 10.0398Z" fill="#066D66"/>
<path d="M19.6022 0H7.12207C3.68953 0 0.87207 2.81746 0.87207 6.26984V18.75C0.87207 22.1825 3.68953 25 7.12207 25H19.6022C23.0546 25 25.8721 22.1825 25.8721 18.7302V6.26984C25.8721 2.81746 23.0546 0 19.6022 0ZM21.1102 13.1151C21.1102 14.4246 20.9911 15.754 20.9911 15.754C20.9911 15.754 20.8522 16.8651 20.3959 17.3611C19.8006 18.0159 19.1459 18.0159 18.8483 18.0556C16.6657 18.2143 13.3919 18.2341 13.3919 18.2341C13.3919 18.2341 9.32445 18.1746 8.07445 18.0556C7.73715 17.996 6.9435 18.0159 6.34826 17.3611C5.87207 16.8651 5.75302 15.754 5.75302 15.754C5.75302 15.754 5.63398 14.4246 5.63398 13.1151V11.8849C5.63398 10.5754 5.75302 9.24603 5.75302 9.24603C5.75302 9.24603 5.89191 8.13492 6.34826 7.63889C6.9435 6.98413 7.59826 6.96429 7.89588 6.9246C10.0983 6.76587 13.3721 6.74603 13.3721 6.74603C13.3721 6.74603 16.6459 6.76587 18.8284 6.9246C19.126 6.96429 19.8006 6.98413 20.3959 7.61905C20.8721 8.11508 20.9911 9.24603 20.9911 9.24603C20.9911 9.24603 21.1102 10.5754 21.1102 11.8849V13.1151Z" fill="#066D66"/>
</g>
<defs>
<clipPath id="clip0">
<rect width="25" height="25" fill="white" transform="translate(0.87207)"/>
</clipPath>
</defs>
</svg>
