<svg width="26" height="25" viewBox="0 0 26 25" fill="none" xmlns="http://www.w3.org/2000/svg">
<path d="M17.2481 0H9.57393C2.5708 0 0.910645 1.66016 0.910645 8.66328V16.3375C0.910645 23.3406 2.5708 25.0008 9.57393 25.0008H17.2481C24.2513 25.0008 25.9114 23.3406 25.9114 16.3375V8.66328C25.9114 1.66016 24.2349 0 17.2481 0ZM21.0935 17.8344H19.2786C18.5911 17.8344 18.3794 17.2891 17.1427 16.0359C16.0685 14.9945 15.5927 14.8563 15.3278 14.8563C14.9536 14.8563 14.8474 14.9617 14.8474 15.475V17.1148C14.8474 17.5547 14.7091 17.8188 13.545 17.8188C11.62 17.8188 9.48408 16.6547 7.98643 14.4859C5.72783 11.3078 5.10986 8.92734 5.10986 8.43516C5.10986 8.17031 5.21533 7.92266 5.72393 7.92266H7.54268C8.00283 7.92266 8.17783 8.13437 8.35674 8.62656C9.25596 11.2227 10.7536 13.4969 11.3716 13.4969C11.5997 13.4969 11.7052 13.3914 11.7052 12.8094V10.1281C11.6356 8.89141 10.9849 8.78516 10.9849 8.34609C10.9849 8.13437 11.1599 7.92266 11.4403 7.92266H14.3005C14.6872 7.92266 14.8294 8.13437 14.8294 8.58984V12.207C14.8294 12.5977 15.0044 12.7359 15.1099 12.7359C15.338 12.7359 15.5333 12.5977 15.956 12.1742C17.2622 10.7094 18.1981 8.45078 18.1981 8.45078C18.32 8.18594 18.5317 7.93828 18.9919 7.93828H20.8106C21.356 7.93828 21.4778 8.21875 21.356 8.60938C21.1278 9.66719 18.9021 12.8086 18.9021 12.8086C18.7106 13.1258 18.6372 13.2641 18.9021 13.618C19.0974 13.8828 19.7325 14.432 20.1552 14.9242C20.9325 15.807 21.5302 16.5477 21.6896 17.0602C21.8685 17.5688 21.6044 17.8336 21.0911 17.8336L21.0935 17.8344Z" fill="#066D66"/>
</svg>
