<svg width="22" height="22" viewBox="0 0 22 22" fill="none" xmlns="http://www.w3.org/2000/svg">
<path fill-rule="evenodd" clip-rule="evenodd" d="M14.976 14.0895H15.9635L21.276 19.4145C21.7885 19.927 21.7885 20.752 21.276 21.2645L21.2635 21.277C20.751 21.7895 19.926 21.7895 19.4135 21.277L14.0885 15.9645V14.977L13.751 14.627C12.001 16.127 9.61349 16.902 7.07599 16.477C3.60099 15.8895 0.825994 12.9895 0.400994 9.48945C-0.236506 4.20195 4.20099 -0.248049 9.48849 0.401951C12.9885 0.826951 15.8885 3.60195 16.476 7.07695C16.901 9.61445 16.126 12.002 14.626 13.752L14.976 14.0895ZM2.83838 8.46445C2.83838 11.577 5.35088 14.0895 8.46338 14.0895C11.5759 14.0895 14.0884 11.577 14.0884 8.46445C14.0884 5.35195 11.5759 2.83945 8.46338 2.83945C5.35088 2.83945 2.83838 5.35195 2.83838 8.46445Z" fill="white"/>
</svg>
