<svg width="30" height="30" viewBox="0 0 30 30" fill="none" xmlns="http://www.w3.org/2000/svg">
<path fill-rule="evenodd" clip-rule="evenodd" d="M27.5 11.8829H21.5125L16.025 3.67041C15.525 2.93291 14.4375 2.93291 13.95 3.67041L8.4625 11.8829H2.5C1.8125 11.8829 1.25 12.4454 1.25 13.1329C1.25 13.2454 1.2625 13.3579 1.3 13.4704L4.475 25.0579C4.7625 26.1079 5.725 26.8829 6.875 26.8829H23.125C24.275 26.8829 25.2375 26.1079 25.5375 25.0579L28.7125 13.4704L28.75 13.1329C28.75 12.4454 28.1875 11.8829 27.5 11.8829ZM14.9875 6.62047L18.5 11.883H11.475L14.9875 6.62047ZM12 19C12 20.65 13.35 22 15 22C16.65 22 18 20.65 18 19C18 17.35 16.65 16 15 16C13.35 16 12 17.35 12 19Z" fill="white"/>
</svg>
