<svg width="24" height="24" viewBox="0 0 24 24" fill="none" xmlns="http://www.w3.org/2000/svg">
<path d="M21.6293 16.3575L18.2426 15.9708C17.4293 15.8775 16.6293 16.1575 16.056 16.7308L13.6026 19.1842C9.82931 17.2642 6.73598 14.1842 4.81598 10.3975L7.28265 7.93084C7.85598 7.3575 8.13598 6.5575 8.04264 5.74417L7.65598 2.38417C7.49598 1.0375 6.36265 0.0241699 5.00265 0.0241699H2.69598C1.18931 0.0241699 -0.0640213 1.2775 0.029312 2.78417C0.735979 14.1708 9.84265 23.2642 21.216 23.9708C22.7226 24.0642 23.976 22.8108 23.976 21.3042V18.9975C23.9893 17.6508 22.976 16.5175 21.6293 16.3575Z" fill="white"/>
</svg>
