<svg width="32" height="32" viewBox="0 0 32 32" fill="none" xmlns="http://www.w3.org/2000/svg">
<path d="M15.8701 7.97461C15.079 7.97461 14.3056 8.20921 13.6478 8.64873C12.99 9.08826 12.4774 9.71297 12.1746 10.4439C11.8719 11.1748 11.7926 11.979 11.947 12.755C12.1013 13.5309 12.4823 14.2436 13.0417 14.803C13.6011 15.3624 14.3138 15.7434 15.0898 15.8978C15.8657 16.0521 16.6699 15.9729 17.4009 15.6701C18.1318 15.3674 18.7565 14.8547 19.196 14.1969C19.6355 13.5391 19.8701 12.7657 19.8701 11.9746C19.8689 10.9141 19.4471 9.8974 18.6972 9.14752C17.9473 8.39763 16.9306 7.97582 15.8701 7.97461ZM15.8701 13.9746C15.4746 13.9746 15.0879 13.8573 14.759 13.6375C14.4301 13.4178 14.1737 13.1054 14.0224 12.74C13.871 12.3745 13.8314 11.9724 13.9085 11.5844C13.9857 11.1965 14.1762 10.8401 14.4559 10.5604C14.7356 10.2807 15.092 10.0902 15.4799 10.013C15.8679 9.93587 16.27 9.97548 16.6355 10.1269C17.0009 10.2782 17.3133 10.5346 17.5331 10.8635C17.7528 11.1924 17.8701 11.579 17.8701 11.9746C17.8695 12.5049 17.6586 13.0132 17.2837 13.3881C16.9087 13.7631 16.4004 13.974 15.8701 13.9746Z" fill="white"/>
<path d="M23.5565 4.28219C21.656 2.38221 19.1192 1.25355 16.4355 1.11403C13.7518 0.974518 11.1115 1.83404 9.02432 3.5267C6.9371 5.21937 5.55085 7.62519 5.13313 10.2798C4.71541 12.9345 5.29583 15.6498 6.76237 17.9016L14.3191 29.5024C14.4872 29.7606 14.7172 29.9727 14.988 30.1195C15.2589 30.2663 15.5621 30.3432 15.8702 30.3432C16.1782 30.3432 16.4814 30.2663 16.7523 30.1195C17.0232 29.9727 17.2531 29.7606 17.4212 29.5024L24.9782 17.9016C26.339 15.8127 26.9403 13.3195 26.6815 10.8399C26.4227 8.36031 25.3193 6.04505 23.5565 4.28219ZM23.3024 16.8099L15.8702 28.2193L8.43787 16.8099C6.16287 13.3175 6.65081 8.64375 9.59806 5.69637C10.4217 4.87269 11.3995 4.21931 12.4757 3.77354C13.5519 3.32776 14.7053 3.09832 15.8702 3.09832C17.035 3.09832 18.1885 3.32776 19.2646 3.77354C20.3408 4.21931 21.3186 4.87269 22.1423 5.69637C25.0896 8.64375 25.5774 13.3175 23.3024 16.8099Z" fill="white"/>
</svg>
